<?xml version="1.0" encoding="utf-8"?>
<!-- Generator: Adobe Illustrator 23.0.1, SVG Export Plug-In . SVG Version: 6.00 Build 0)  -->
<svg version="1.1" id="Layer_1" xmlns="http://www.w3.org/2000/svg" xmlns:xlink="http://www.w3.org/1999/xlink" x="0px" y="0px"
	 viewBox="0 0 880 300" style="enable-background:new 0 0 880 300;" xml:space="preserve">
<style type="text/css">
	.st0{fill:#00AAAD;}
	.st1{fill:#602D91;}
	.st2{fill:#F15A22;}
	.st3{fill:#B2D235;}
	.st4{fill:#FFFFFF;}
</style>
<polygon class="st0" points="300,0 299.3,0 159.7,122.4 261.6,300 300,300 "/>
<polygon class="st1" points="0,0 0,300 6.8,300 69.4,0 "/>
<polygon class="st2" points="242.6,0 109.6,0 79.5,144.7 "/>
<polygon class="st3" points="67.4,203 47,300 216.7,300 130.3,148.2 "/>
<polygon class="st4" points="299.3,0 242.6,0 79.5,144.7 109.6,0 69.4,0 6.8,300 47,300 67.4,203 130.3,148.2 216.7,300 261.6,300 
	159.7,122.4 "/>
<g>
	<path class="st2" d="M371.4,178l14.9-71.6h9.6l-7.2,34.5l38.9-34.5h13.5l-33.3,29.2l24.4,42.4h-10.7l-20.7-36.3l-15,13L381,178
		H371.4z"/>
	<path class="st2" d="M425.8,198l0.5-8.3c1.8,0.5,3.6,0.8,5.3,0.8c1.8,0,3.2-0.4,4.3-1.2c1.4-1.1,3-3.1,4.7-6.1l2.8-5.1l-8.6-52h8.7
		l3.9,26.2c0.8,5.2,1.4,10.4,2,15.5l23.2-41.7h9.2l-33.1,58.7c-3.2,5.7-6,9.5-8.5,11.4c-2.5,1.9-5.3,2.8-8.5,2.8
		C429.8,199.1,427.8,198.7,425.8,198z"/>
	<path class="st2" d="M476.5,178l14.9-71.6h8.8L485.4,178H476.5z"/>
	<path class="st2" d="M535.2,160.4l8.6,0.9c-1.2,4.3-4.1,8.3-8.5,12.2c-4.4,3.8-9.7,5.8-15.9,5.8c-3.8,0-7.4-0.9-10.6-2.7
		c-3.2-1.8-5.6-4.4-7.3-7.7c-1.7-3.4-2.5-7.2-2.5-11.6c0-5.7,1.3-11.2,3.9-16.5c2.6-5.3,6-9.3,10.2-11.9c4.2-2.6,8.7-3.9,13.5-3.9
		c6.2,0,11.1,1.9,14.8,5.8c3.7,3.8,5.5,9.1,5.5,15.7c0,2.5-0.2,5.1-0.7,7.8h-38.2c-0.1,1-0.2,1.9-0.2,2.7c0,4.9,1.1,8.6,3.3,11.1
		c2.2,2.6,5,3.8,8.2,3.8c3,0,6-1,8.9-3C531.3,167,533.6,164.1,535.2,160.4z M509.5,147.5h29.1c0-0.9,0-1.6,0-2
		c0-4.4-1.1-7.8-3.3-10.2c-2.2-2.4-5.1-3.5-8.5-3.5c-3.8,0-7.2,1.3-10.3,3.9C513.4,138.4,511,142.3,509.5,147.5z"/>
	<path class="st3" d="M564.5,178h-14.7l15-71.6h31.8c5.5,0,9.7,0.6,12.8,1.7c3,1.1,5.5,3.2,7.4,6.2c1.9,3,2.8,6.6,2.8,10.9
		c0,6.1-1.8,11.1-5.5,15.1c-3.6,4-9.2,6.4-16.6,7.3c1.9,1.7,3.7,3.9,5.3,6.7c3.3,5.6,6.9,13.5,11,23.7H598c-1.3-4-3.8-10.3-7.5-18.9
		c-2-4.6-4.2-7.7-6.4-9.3c-1.4-0.9-3.8-1.4-7.3-1.4h-6L564.5,178z M573,137.6h7.8c7.9,0,13.2-0.5,15.7-1.4c2.6-0.9,4.6-2.4,6.1-4.4
		c1.5-2,2.2-4.1,2.2-6.3c0-2.6-1.1-4.6-3.2-5.9c-1.3-0.8-4.1-1.2-8.4-1.2H577L573,137.6z"/>
	<path class="st3" d="M668.1,156.4h-35.2c0,0.6,0,1,0,1.3c0,3.5,1,6.2,3,8.3c2,2.1,4.4,3.2,7.2,3.2c4.7,0,8.3-2.4,10.9-7.2l12.5,2.1
		c-2.4,5-5.7,8.8-9.8,11.4c-4.1,2.5-8.7,3.8-13.7,3.8c-7,0-12.6-2.2-17-6.6c-4.4-4.4-6.5-10.2-6.5-17.5c0-7.1,2-13.4,5.9-18.9
		c5.4-7.5,13-11.2,23-11.2c6.3,0,11.4,2,15.1,5.9c3.7,3.9,5.6,9.4,5.6,16.5C669,150.7,668.7,153.7,668.1,156.4z M656.2,147.9
		c0-0.6,0-1.1,0-1.4c0-3.8-0.9-6.7-2.6-8.6c-1.7-1.9-4-2.9-6.9-2.9c-2.9,0-5.5,1.1-7.8,3.3c-2.3,2.2-3.8,5.4-4.7,9.7H656.2z"/>
	<path class="st3" d="M682.5,126.2h14L685.6,178h-14L682.5,126.2z M686.6,106.4h14l-2.6,12.7h-14L686.6,106.4z"/>
	<path class="st3" d="M697.4,178l15-71.6h14L711.4,178H697.4z"/>
	<path class="st3" d="M723.3,178l15-71.6h14L737.3,178H723.3z"/>
	<path class="st3" d="M753.7,126.2h14l3.5,25.8c0.9,6.6,1.4,11.3,1.5,14c1.8-5.3,4.3-10.9,7.5-16.8l12.4-23h14.8l-32,56.9
		c-2.6,4.7-4.7,8-6.2,9.9c-1.5,1.9-3.3,3.4-5.5,4.4c-2.1,1.1-4.7,1.6-7.7,1.6c-3,0-6.3-0.5-10-1.6l1.2-10.4c1.7,0.5,3.3,0.7,4.9,0.7
		c4.3,0,7.8-3.3,10.6-9.8L753.7,126.2z"/>
</g>
</svg>
